<svg width="26" height="23" viewBox="0 0 26 23" fill="none" xmlns="http://www.w3.org/2000/svg">
<path d="M21.6667 21.3348L24.3208 23L23.6167 19.8596L26 17.7585L22.8692 17.4791L21.6667 14.5287L20.4425 17.4791L17.3333 17.7585L19.695 19.8596L18.9583 23L21.6667 21.3348ZM15.2533 20.1166H2.16667C1.59838 20.0961 1.05879 19.854 0.656701 19.4392C0.254613 19.0243 0.0199392 18.4677 0 17.8814L0 2.23518C0.0433333 1.01701 0.985833 0.0447036 2.16667 0H23.8333C25.0142 0.0447036 25.9567 1.01701 26 2.23518V14.0034C25.3717 13.4111 24.6458 12.9752 23.8333 12.6735V2.23518H2.16667V17.8814H15.2533C15.1992 18.2502 15.1667 18.619 15.1667 18.999C15.1667 19.379 15.1992 19.759 15.2533 20.1166ZM15.1667 15.6463H4.33333V14.2493C4.33333 12.3941 7.95167 11.4553 9.75 11.4553C11.5483 11.4553 15.1667 12.3941 15.1667 14.2493V15.6463ZM15.1667 8.94072H19.5V10.0583H15.1667V8.94072ZM9.75 4.47036C8.26583 4.47036 7.04167 5.73324 7.04167 7.26433C7.04167 8.79543 8.26583 10.0583 9.75 10.0583C11.2342 10.0583 12.4583 8.79543 12.4583 7.26433C12.4583 5.73324 11.2342 4.47036 9.75 4.47036ZM15.1667 6.70554H21.6667V7.82313H15.1667V6.70554ZM15.1667 4.47036H21.6667V5.58795H15.1667V4.47036Z" fill="#242323"/>
</svg>
