<svg width="20" height="20" viewBox="0 0 20 20" fill="none" xmlns="http://www.w3.org/2000/svg">
<path d="M14.1667 18.3337H5.83333C5.39131 18.3337 4.96738 18.1581 4.65482 17.8455C4.34226 17.5329 4.16667 17.109 4.16667 16.667V5.83366H2.5V4.16699H5.83333V3.33366C5.83333 2.89163 6.00893 2.46771 6.32149 2.15515C6.63405 1.84259 7.05797 1.66699 7.5 1.66699H12.5C12.942 1.66699 13.3659 1.84259 13.6785 2.15515C13.9911 2.46771 14.1667 2.89163 14.1667 3.33366V4.16699H17.5V5.83366H15.8333V16.667C15.8333 17.109 15.6577 17.5329 15.3452 17.8455C15.0326 18.1581 14.6087 18.3337 14.1667 18.3337ZM5.83333 5.83366V16.667H14.1667V5.83366H5.83333ZM7.5 3.33366V4.16699H12.5V3.33366H7.5ZM12.5 15.0003H10.8333V7.50033H12.5V15.0003ZM9.16667 15.0003H7.5V7.50033H9.16667V15.0003Z" fill="#72AA01"/>
</svg>
