<svg width="20" height="20" viewBox="0 0 20 20" fill="none" xmlns="http://www.w3.org/2000/svg">
<path d="M19.3776 2.42452C19.4944 2.54167 19.56 2.70034 19.56 2.86577C19.56 3.03119 19.4944 3.18986 19.3776 3.30701L18.0739 4.61202L15.5739 2.11202L16.8776 0.807015C16.9948 0.689846 17.1538 0.624023 17.3195 0.624023C17.4852 0.624023 17.6442 0.689846 17.7614 0.807015L19.3776 2.42326V2.42452ZM17.1901 5.49451L14.6901 2.99451L6.17388 11.512C6.10509 11.5808 6.0533 11.6647 6.02263 11.757L5.01638 14.7745C4.99813 14.8295 4.99554 14.8885 5.0089 14.9449C5.02226 15.0013 5.05103 15.0529 5.09202 15.0939C5.133 15.1349 5.18457 15.1636 5.24097 15.177C5.29737 15.1904 5.35637 15.1878 5.41138 15.1695L8.42888 14.1633C8.52109 14.133 8.60497 14.0816 8.67388 14.0133L17.1901 5.49576V5.49451Z" fill="#72AA01"/>
<path fill-rule="evenodd" clip-rule="evenodd" d="M1.25 16.875C1.25 17.3723 1.44754 17.8492 1.79917 18.2008C2.15081 18.5525 2.62772 18.75 3.125 18.75H16.875C17.3723 18.75 17.8492 18.5525 18.2008 18.2008C18.5525 17.8492 18.75 17.3723 18.75 16.875V9.375C18.75 9.20924 18.6842 9.05027 18.5669 8.93306C18.4497 8.81585 18.2908 8.75 18.125 8.75C17.9592 8.75 17.8003 8.81585 17.6831 8.93306C17.5658 9.05027 17.5 9.20924 17.5 9.375V16.875C17.5 17.0408 17.4342 17.1997 17.3169 17.3169C17.1997 17.4342 17.0408 17.5 16.875 17.5H3.125C2.95924 17.5 2.80027 17.4342 2.68306 17.3169C2.56585 17.1997 2.5 17.0408 2.5 16.875V3.125C2.5 2.95924 2.56585 2.80027 2.68306 2.68306C2.80027 2.56585 2.95924 2.5 3.125 2.5H11.25C11.4158 2.5 11.5747 2.43415 11.6919 2.31694C11.8092 2.19973 11.875 2.04076 11.875 1.875C11.875 1.70924 11.8092 1.55027 11.6919 1.43306C11.5747 1.31585 11.4158 1.25 11.25 1.25H3.125C2.62772 1.25 2.15081 1.44754 1.79917 1.79917C1.44754 2.15081 1.25 2.62772 1.25 3.125V16.875Z" fill="#72AA01"/>
</svg>
